HIERARCHY
ROOT SpineBase
{
  OFFSET 0.000000 0.000000 0.000000
  CHANNELS 6 Xposition Yposition Zposition Zrotation Xrotation Yrotation
  JOINT SpineMid
  {
    OFFSET -0.000000 23.525171 0.000000
    CHANNELS 3 Zrotation Xrotation Yrotation
    JOINT SpineShoulder
    {
      OFFSET 0.117091 17.681797 -0.370698
      CHANNELS 3 Zrotation Xrotation Yrotation
      JOINT Neck
      {
        OFFSET -0.033740 5.836903 -0.325710
        CHANNELS 3 Zrotation Xrotation Yrotation
        JOINT Head
        {
          OFFSET 1.021565 10.079597 -0.407799
          CHANNELS 3 Zrotation Xrotation Yrotation
          End Site
          {
            OFFSET 0 0 0
          }
        }
      }
      JOINT ShoulderLeft
      {
        OFFSET -4.451697 -1.783654 -5.970860
        CHANNELS 3 Zrotation Xrotation Yrotation
        JOINT ElbowLeft
        {
          OFFSET -3.056122 -16.677993 -1.350364
          CHANNELS 3 Zrotation Xrotation Yrotation
          JOINT WristLeft
          {
            OFFSET -7.379713 -18.790522 -4.594561
            CHANNELS 3 Zrotation Xrotation Yrotation
            JOINT HandLeft
            {
              OFFSET -1.174629 -12.350463 0.403445
              CHANNELS 3 Zrotation Xrotation Yrotation
              JOINT HandTipLeft
              {
                OFFSET -2.489609 -2.825950 -1.831344
                CHANNELS 3 Zrotation Xrotation Yrotation
                End Site
                {
                  OFFSET 0 0 0
                }
              }
              JOINT ThumbLeft
              {
                OFFSET -1.851334 0.513343 -1.013846
                CHANNELS 3 Zrotation Xrotation Yrotation
                End Site
                {
                  OFFSET 0 0 0
                }
              }
            }
          }
        }
      }
      JOINT ShoulderRight
      {
        OFFSET 6.796356 -3.143625 -3.164864
        CHANNELS 3 Zrotation Xrotation Yrotation
        JOINT ElbowRight
        {
          OFFSET -10.487439 -15.679650 -8.965056
          CHANNELS 3 Zrotation Xrotation Yrotation
          JOINT WristRight
          {
            OFFSET 0.746984 20.132105 4.201585
            CHANNELS 3 Zrotation Xrotation Yrotation
            JOINT HandRight
            {
              OFFSET 3.699976 9.075345 -0.736018
              CHANNELS 3 Zrotation Xrotation Yrotation
              JOINT HandTipRight
              {
                OFFSET -1.686165 3.480129 0.786521
                CHANNELS 3 Zrotation Xrotation Yrotation
                End Site
                {
                  OFFSET 0 0 0
                }
              }
              JOINT ThumbRight
              {
                OFFSET -2.056462 0.422757 -2.369698
                CHANNELS 3 Zrotation Xrotation Yrotation
                End Site
                {
                  OFFSET 0 0 0
                }
              }
            }
          }
        }
      }
    }
  }
  JOINT HipLeft
  {
    OFFSET -4.970901 1.285805 -3.306421
    CHANNELS 3 Zrotation Xrotation Yrotation
    JOINT KneeLeft
    {
      OFFSET -5.935309 -22.177292 -4.674976
      CHANNELS 3 Zrotation Xrotation Yrotation
      JOINT AnkleLeft
      {
        OFFSET -4.226200 -22.189580 4.595148
        CHANNELS 3 Zrotation Xrotation Yrotation
        JOINT FootLeft
        {
          OFFSET 0.681349 -2.877520 -9.288541
          CHANNELS 3 Zrotation Xrotation Yrotation
          End Site
          {
            OFFSET 0 0 0
          }
        }
      }
    }
  }
  JOINT HipRight
  {
    OFFSET 2.554779 -0.119008 -1.638166
    CHANNELS 3 Zrotation Xrotation Yrotation
    JOINT KneeRight
    {
      OFFSET -11.049593 -26.465067 -4.592086
      CHANNELS 3 Zrotation Xrotation Yrotation
      JOINT AnkleRight
      {
        OFFSET -7.491304 -23.515091 5.258500
        CHANNELS 3 Zrotation Xrotation Yrotation
        JOINT FootRight
        {
          OFFSET 0.317374 -4.503017 -3.746172
          CHANNELS 3 Zrotation Xrotation Yrotation
          End Site
          {
            OFFSET 0 0 0
          }
        }
      }
    }
  }
}
MOTION
Frames: 14
Frame Time: 0.033333
171.836082 77.857049 349.660802 0.000000 0.000000 -12.498924 -0.000000 -0.000000 12.498924 -0.000000 0.000000 0.000000 -0.000000 0.000000 0.000000 0.000000 0.000000 0.000000 -0.000000 0.000000 0.000000 -0.000000 0.000000 0.000000 -0.000000 0.000000 0.000000 -0.000000 0.000000 0.000000 0.000000 0.000000 0.000000 0.000000 0.000000 0.000000 -0.000000 0.000000 0.000000 -0.000000 0.000000 0.000000 -0.000000 0.000000 0.000000 -0.000000 0.000000 0.000000 0.000000 0.000000 0.000000 0.000000 0.000000 0.000000 -0.000000 -0.000000 12.498924 -0.000000 0.000000 0.000000 -0.000000 0.000000 0.000000 0.000000 0.000000 0.000000 -0.000000 -0.000000 12.498924 -0.000000 0.000000 0.000000 -0.000000 0.000000 0.000000 0.000000 0.000000 0.000000
171.608262 78.195348 349.487310 -0.806346 0.534558 -14.538705 0.118240 0.044876 14.525202 0.680792 -0.548101 0.021158 1.342246 -1.039450 0.171975 0.000000 0.000000 0.000000 0.833007 -0.347573 -0.001232 -0.833030 0.347519 0.006285 -2.331349 -2.580708 0.116489 0.095442 2.614449 1.278315 0.000000 0.000000 0.000000 0.000000 0.000000 0.000000 -5.030840 0.896101 2.242092 3.972518 -6.101725 -1.856010 3.801197 7.245952 -1.398665 -16.172737 -16.317844 -5.821134 0.000000 0.000000 0.000000 0.000000 0.000000 0.000000 1.674170 -0.926275 14.640286 -0.797448 -0.097381 0.041050 0.583987 0.725569 -1.353705 0.000000 0.000000 0.000000 2.704707 0.236284 14.184036 -4.097536 1.210480 -0.531363 5.387419 2.330287 -1.441665 0.000000 0.000000 0.000000
171.391896 78.449799 349.339974 -1.529183 0.977523 -15.778286 0.247789 0.092420 15.760516 0.564920 -0.388035 0.000115 3.050978 -2.525414 0.393407 0.000000 0.000000 0.000000 2.259021 -1.280921 0.062085 -1.557162 0.671799 0.012076 -4.363297 -5.048060 0.144656 0.478176 4.990371 2.314962 0.000000 0.000000 0.000000 0.000000 0.000000 0.000000 -8.219462 0.663346 4.060794 6.991001 -11.144616 -3.477282 7.844924 13.372692 -3.223263 -31.255509 -27.792359 -14.018409 0.000000 0.000000 0.000000 0.000000 0.000000 0.000000 3.180545 -1.513811 15.949711 -1.539290 -0.205882 0.100804 1.127360 1.228713 -2.591925 0.000000 0.000000 0.000000 4.883616 0.446999 15.190274 -6.976159 2.249747 -0.899006 9.053434 4.464465 -2.378655 0.000000 0.000000 0.000000
171.186985 78.620402 349.218793 -2.161491 1.323843 -16.232221 0.389995 0.137422 16.216346 0.745045 -0.524053 -0.001536 4.004829 -3.439942 0.557946 0.000000 0.000000 0.000000 3.175156 -1.790151 0.110438 -2.168985 0.971701 0.015904 -5.955888 -7.270767 0.118129 1.664596 7.005079 2.597031 0.000000 0.000000 0.000000 0.000000 0.000000 0.000000 -10.392338 0.374856 5.354031 9.015875 -14.952728 -4.744058 11.860901 18.136407 -5.270182 -43.133994 -34.271343 -21.394340 0.000000 0.000000 0.000000 0.000000 0.000000 0.000000 4.494296 -1.863579 16.435267 -2.246378 -0.301773 0.171444 1.629921 1.523669 -3.706491 0.000000 0.000000 0.000000 6.487688 0.496339 15.543327 -8.639182 3.154886 -1.152883 11.107700 6.408957 -2.857877 0.000000 0.000000 0.000000
170.993528 78.707157 349.123767 -2.697594 1.569992 -15.911976 0.546131 0.173717 15.901306 0.852609 -0.618195 -0.005430 4.553096 -4.109973 0.674129 0.000000 0.000000 0.000000 3.942310 -2.208136 0.162716 -2.665784 1.246269 0.016415 -6.977773 -9.123012 0.083201 4.198402 8.530841 1.531034 0.000000 0.000000 0.000000 0.000000 0.000000 0.000000 -11.038134 -0.235405 6.052511 10.086791 -17.437932 -5.558209 15.443132 21.466434 -7.207457 -50.717053 -37.484947 -26.146341 0.000000 0.000000 0.000000 0.000000 0.000000 0.000000 5.609390 -2.048771 16.104098 -2.936341 -0.371747 0.248843 2.091999 1.621384 -4.690351 0.000000 0.000000 0.000000 7.469464 0.293544 15.267659 -9.081062 3.956757 -1.333950 11.662379 8.183564 -2.920399 0.000000 0.000000 0.000000
170.811526 78.710064 349.054897 -3.133281 1.713987 -14.818823 0.717003 0.194060 14.814207 0.885739 -0.668999 -0.011970 4.685685 -4.530273 0.729550 0.000000 0.000000 0.000000 4.556612 -2.533322 0.214349 -3.045505 1.494709 0.012396 -7.322725 -10.496946 0.087237 8.215128 9.364053 -1.169440 0.000000 0.000000 0.000000 0.000000 0.000000 0.000000 -10.100856 -1.122539 6.151594 10.269957 -18.571295 -5.849315 18.172093 23.461246 -8.673774 -53.600411 -38.694953 -27.686976 0.000000 0.000000 0.000000 0.000000 0.000000 0.000000 6.533693 -2.119315 14.954029 -3.625260 -0.409879 0.331305 2.514468 1.529629 -5.537404 0.000000 0.000000 0.000000 7.776308 -0.203195 14.371067 -8.286496 4.674570 -1.478388 10.807409 9.810845 -2.596899 0.000000 0.000000 0.000000
170.633457 78.649469 348.951572 -3.442122 1.794519 -12.113099 1.225977 0.065887 12.122143 0.866332 -0.715148 -0.010050 3.191243 -4.346536 0.590096 0.000000 0.000000 0.000000 4.715533 -2.641795 0.237567 -3.345219 1.767276 -0.001319 -7.874719 -9.970092 0.004985 15.519290 6.026517 -4.325456 0.000000 0.000000 0.000000 0.000000 0.000000 0.000000 -4.585476 -3.532619 4.916354 8.618321 -16.255273 -5.053549 22.019450 23.604062 -9.691947 -52.431334 -36.986073 -24.324807 0.000000 0.000000 0.000000 0.000000 0.000000 0.000000 7.428430 -2.341588 12.159437 -4.804396 -0.194314 0.352335 3.376672 0.985707 -6.797920 0.000000 0.000000 0.000000 9.151820 -1.457766 12.065494 -9.307354 6.261614 -1.815937 10.493206 4.613116 -2.010399 0.000000 0.000000 0.000000
170.355234 78.441382 348.921986 -3.703354 1.668738 -8.626217 1.816692 -0.123471 8.646419 0.716686 -0.693255 -0.014691 1.151565 -3.723274 0.383997 0.000000 0.000000 0.000000 4.396966 -2.399456 0.230658 -3.181453 1.830188 -0.026739 -7.646669 -10.630420 0.050846 23.638699 4.812933 -10.676184 0.000000 0.000000 0.000000 0.000000 0.000000 0.000000 0.098400 -5.228833 3.824890 4.173860 -14.653147 -3.759095 23.528383 24.191057 -10.475352 -48.944658 -33.683734 -20.094334 0.000000 0.000000 0.000000 0.000000 0.000000 0.000000 8.345467 -2.330956 8.470228 -5.862596 -0.374187 0.547540 3.863906 0.627954 -7.904687 0.000000 0.000000 0.000000 7.880197 -3.079931 9.315871 -5.571398 7.864755 -2.324089 8.189213 10.155893 -2.004900 0.000000 0.000000 0.000000
170.111781 78.156012 348.959905 -3.999371 1.472497 -5.196351 1.767687 -0.111533 5.207373 0.234285 -0.445633 -0.058395 1.474770 -3.838086 0.389897 0.000000 0.000000 0.000000 4.926698 -2.604641 0.313205 -2.901775 1.866076 -0.059355 -6.141371 -10.561352 0.236422 29.239521 3.262408 -16.643561 0.000000 0.000000 0.000000 0.000000 0.000000 0.000000 6.052555 -7.483123 2.778016 1.821806 -11.797446 -2.544258 20.026376 24.178189 -9.138422 -43.263714 -33.078624 -18.143631 0.000000 0.000000 0.000000 0.000000 0.000000 0.000000 9.137883 -1.842891 4.689978 -6.449488 -0.773644 0.824129 3.693715 0.231643 -7.796888 0.000000 0.000000 0.000000 4.835559 -3.961192 6.464879 1.149782 8.073802 -2.635506 4.446427 19.778271 -2.336821 0.000000 0.000000 0.000000
170.121669 77.785202 349.037450 -3.902834 1.244692 -2.443422 1.443901 -0.089572 2.438517 0.229715 -0.476443 -0.069381 1.788524 -3.305100 0.372067 0.000000 0.000000 0.000000 5.367307 -2.734420 0.363242 -3.120114 2.138210 -0.080405 -1.607361 -12.236970 0.938894 24.911423 3.866807 -16.112125 0.000000 0.000000 0.000000 0.000000 0.000000 0.000000 13.505891 -10.365460 1.485115 7.517835 -8.806614 -2.852661 7.538916 25.282422 -4.776675 -27.845499 -35.027986 -15.558041 0.000000 0.000000 0.000000 0.000000 0.000000 0.000000 8.805012 -1.394786 1.741575 -6.075581 -0.526103 0.830422 3.221182 -0.590059 -6.941137 0.000000 0.000000 0.000000 -0.596764 -4.503314 4.439514 10.172625 8.002791 -3.302027 -0.637829 23.033884 -1.835107 0.000000 0.000000 0.000000
170.276691 77.501336 349.116492 -3.684907 1.073132 -0.243406 0.925229 0.011315 0.221708 0.085505 -0.358397 -0.087686 3.029487 -3.061014 0.425270 0.000000 0.000000 0.000000 6.211638 -3.207823 0.458102 -3.518704 2.514764 -0.097917 1.250601 -12.565530 1.374860 23.046382 5.123640 -18.231497 0.000000 0.000000 0.000000 0.000000 0.000000 0.000000 14.925607 -10.424682 0.984728 16.184032 -8.037389 -4.609645 -1.926186 26.726263 -2.802560 -5.892951 -33.772083 -7.817108 0.000000 0.000000 0.000000 0.000000 0.000000 0.000000 8.422374 -1.535444 -0.452099 -5.790321 -0.199178 0.789281 2.648095 -0.627734 -5.482586 0.000000 0.000000 0.000000 -6.624644 -4.071663 2.798561 19.834973 6.549967 -3.345387 -6.541882 24.422426 -1.076359 0.000000 0.000000 0.000000
170.243377 77.547793 349.157768 -3.925911 1.013611 1.831061 0.922618 -0.143725 -1.859734 0.116224 -0.433730 -0.099448 4.485926 -1.364413 0.352544 0.000000 0.000000 0.000000 5.977359 -2.247841 0.323552 -3.084186 1.804485 -0.032127 3.018977 -10.980212 1.435408 15.957333 5.260080 -13.029985 0.000000 0.000000 0.000000 0.000000 0.000000 0.000000 14.295012 -11.849830 2.885478 22.068784 -4.041830 -9.599788 -9.749002 20.867078 1.780950 10.530046 -30.589174 -6.065144 0.000000 0.000000 0.000000 0.000000 0.000000 0.000000 9.475452 -2.380704 -2.495144 -5.631547 0.989486 0.957563 1.043399 -0.823236 -3.630768 0.000000 0.000000 0.000000 -13.505861 -2.040419 1.209769 31.159230 3.905084 -2.326247 -12.363311 22.908133 -0.927255 0.000000 0.000000 0.000000
170.485974 77.530954 349.234386 -3.706200 0.772670 -0.273113 0.908566 -0.323946 0.234535 0.261548 -0.599200 -0.093194 3.871069 -1.657169 0.394955 0.000000 0.000000 0.000000 5.242279 -1.155516 0.186477 -2.700910 1.324473 0.007201 6.093647 -10.480475 1.761721 5.171006 9.587241 -9.670894 0.000000 0.000000 0.000000 0.000000 0.000000 0.000000 13.241567 -13.326222 4.963429 23.396778 -0.511386 -13.584381 -12.800926 15.331474 4.487011 30.026690 -41.199579 -6.073162 0.000000 0.000000 0.000000 0.000000 0.000000 0.000000 8.807670 -2.385294 -0.173753 -5.103995 1.607020 0.707608 0.518422 -0.453281 -1.799645 0.000000 0.000000 0.000000 -16.391550 -3.309862 3.894921 35.210996 5.505960 -3.820086 -14.283842 23.031909 -0.108473 0.000000 0.000000 0.000000
170.958094 77.410861 349.335329 -3.126578 0.497171 -4.871148 0.757187 -0.414313 4.826950 0.481458 -0.679871 -0.072049 1.435217 1.849937 -0.029126 0.000000 0.000000 0.000000 4.232234 -0.484966 0.121254 -2.304925 1.153465 -0.001512 7.430326 -7.339509 1.425035 0.701026 8.356010 -7.971963 0.000000 0.000000 0.000000 0.000000 0.000000 0.000000 7.951795 -12.772309 7.040075 22.932423 1.947819 -15.575684 -6.723407 12.086508 3.652941 -7.384524 -46.626843 -18.363397 0.000000 0.000000 0.000000 0.000000 0.000000 0.000000 7.413440 -2.539683 4.854036 -4.049585 2.655270 0.233788 0.373359 -0.367701 -1.303503 0.000000 0.000000 0.000000 -19.576760 -4.670616 8.673100 39.282857 5.913452 -4.398472 -13.938471 23.758252 -1.235862 0.000000 0.000000 0.000000
